# WaveFront *.obj file (generated by Autodesk ATF)

mtllib Lino.mtl

g Solid2

v -4776.038530 -619.448840 2959.701066
v -4776.038530 -619.448840 3459.701066
v -4776.038530 380.551160 2959.701066
v -4776.038530 380.551160 3459.701066
v -4756.038530 -599.448840 2979.701066
v -4756.038530 -599.448840 3459.701066
v -4756.038530 360.551160 2979.701066
v -4756.038530 360.551160 3459.701066
v -4196.038530 -599.448840 2979.701066
v -4196.038530 -599.448840 3459.701066
v -4196.038530 360.551160 2979.701066
v -4196.038530 360.551160 3459.701066
v -4176.038530 -619.448840 2959.701066
v -4176.038530 -619.448840 3459.701066
v -4176.038530 380.551160 2959.701066
v -4176.038530 380.551160 3459.701066
vt -3.779528 0.000000 0.000000
vt -0.000000 0.000000 0.000000
vt -0.000000 1.889764 0.000000
vt -3.779528 1.889764 0.000000
vt -2.204724 0.000000 0.000000
vt -0.000000 0.000000 0.000000
vt -0.000000 1.889764 0.000000
vt -2.204724 1.889764 0.000000
vt -3.779528 0.000000 0.000000
vt -0.000000 0.000000 0.000000
vt -0.000000 1.889764 0.000000
vt -3.779528 1.889764 0.000000
vt -2.204724 0.000000 0.000000
vt -0.000000 0.000000 0.000000
vt -0.000000 1.889764 0.000000
vt -2.204724 1.889764 0.000000
vt -1.102362 -1.889764 0.000000
vt 1.102362 -1.889764 0.000000
vt 1.102362 1.889764 0.000000
vt -1.102362 1.889764 0.000000
vt 0.000000 0.000000 0.000000
vt 3.937008 0.000000 0.000000
vt 3.937008 1.968504 0.000000
vt 0.000000 1.968504 0.000000
vt 0.000000 0.000000 0.000000
vt 2.362205 0.000000 0.000000
vt 2.362205 1.968504 0.000000
vt 0.000000 1.968504 0.000000
vt 0.000000 0.000000 0.000000
vt 3.937008 0.000000 0.000000
vt 3.937008 1.968504 0.000000
vt 0.000000 1.968504 0.000000
vt 0.000000 0.000000 0.000000
vt 2.362205 0.000000 0.000000
vt 2.362205 1.968504 0.000000
vt 0.000000 1.968504 0.000000
vt 1.102362 1.889764 0.000000
vt 1.102362 -1.889764 0.000000
vt -1.102362 -1.889764 0.000000
vt -1.102362 1.889764 0.000000
vt -1.181102 -1.968504 0.000000
vt 1.181102 -1.968504 0.000000
vt 1.181102 1.968504 0.000000
vt -1.181102 1.968504 0.000000
vt -1.181102 -1.968504 0.000000
vt 1.181102 -1.968504 0.000000
vt 1.181102 1.968504 0.000000
vt -1.181102 1.968504 0.000000
vn -0.100000 0.000000 0.000000
vn -0.100000 0.000000 0.000000
vn -0.100000 0.000000 0.000000
vn -0.100000 0.000000 0.000000
vn -0.000000 -0.100000 -0.000000
vn -0.000000 -0.100000 -0.000000
vn -0.000000 -0.100000 -0.000000
vn -0.000000 -0.100000 -0.000000
vn 0.100000 0.000000 -0.000000
vn 0.100000 0.000000 -0.000000
vn 0.100000 0.000000 -0.000000
vn 0.100000 0.000000 -0.000000
vn 0.000000 0.100000 0.000000
vn 0.000000 0.100000 0.000000
vn 0.000000 0.100000 0.000000
vn 0.000000 0.100000 0.000000
vn 0.000000 -0.000000 0.100000
vn 0.000000 -0.000000 0.100000
vn 0.000000 -0.000000 0.100000
vn 0.000000 -0.000000 0.100000
vn -0.100000 0.000000 0.000000
vn -0.100000 0.000000 0.000000
vn -0.100000 0.000000 0.000000
vn -0.100000 0.000000 0.000000
vn 0.000000 0.100000 0.000000
vn 0.000000 0.100000 0.000000
vn 0.000000 0.100000 0.000000
vn 0.000000 0.100000 0.000000
vn 0.100000 0.000000 -0.000000
vn 0.100000 0.000000 -0.000000
vn 0.100000 0.000000 -0.000000
vn 0.100000 0.000000 -0.000000
vn -0.000000 -0.100000 -0.000000
vn -0.000000 -0.100000 -0.000000
vn -0.000000 -0.100000 -0.000000
vn -0.000000 -0.100000 -0.000000
vn 0.000000 -0.000000 0.100000
vn 0.000000 -0.000000 0.100000
vn 0.000000 -0.000000 0.100000
vn 0.000000 -0.000000 0.100000
vn 0.000000 -0.000000 0.100000
vn 0.000000 -0.000000 0.100000
vn 0.000000 -0.000000 0.100000
vn 0.000000 -0.000000 0.100000
vn -0.000000 0.000000 -0.100000
vn -0.000000 0.000000 -0.100000
vn -0.000000 0.000000 -0.100000
vn -0.000000 0.000000 -0.100000
usemtl 99,43,14
f 10/1/1 12/2/2 9/4/4
f 9/4/4 12/2/2 11/3/3
f 12/5/5 8/6/6 11/8/8
f 11/8/8 8/6/6 7/7/7
f 8/9/9 6/10/10 7/12/12
f 7/12/12 6/10/10 5/11/11
f 6/13/13 10/14/14 5/16/16
f 5/16/16 10/14/14 9/15/15
f 5/17/17 9/18/18 7/20/20
f 7/20/20 9/18/18 11/19/19
f 3/21/21 1/22/22 4/24/24
f 4/24/24 1/22/22 2/23/23
f 15/25/25 3/26/26 16/28/28
f 16/28/28 3/26/26 4/27/27
f 13/29/29 15/30/30 14/32/32
f 14/32/32 15/30/30 16/31/31
f 1/33/33 13/34/34 2/36/36
f 2/36/36 13/34/34 14/35/35
f 10/38/38 14/42/42 12/37/37
f 12/37/37 14/42/42 16/43/43
f 12/37/37 16/43/43 4/44/44
f 10/38/38 6/39/39 14/42/42
f 14/42/42 6/39/39 2/41/41
f 2/41/41 6/39/39 8/40/40
f 2/41/41 8/40/40 4/44/44
f 4/44/44 8/40/40 12/37/37
f 13/45/45 1/46/46 15/48/48
f 15/48/48 1/46/46 3/47/47

g Solid1

v -4466.038530 360.551160 2979.701066
v -4466.038530 360.551160 3459.701066
v -4466.038530 -599.448840 2979.701066
v -4466.038530 -599.448840 3459.701066
v -4486.038530 360.551160 2979.701066
v -4486.038530 360.551160 3459.701066
v -4486.038530 -599.448840 2979.701066
v -4486.038530 -599.448840 3459.701066
vt 0.000000 0.000000 0.000000
vt 1.889764 0.000000 0.000000
vt 1.889764 0.078740 0.000000
vt 0.000000 0.078740 0.000000
vt 0.000000 0.000000 0.000000
vt 3.779528 0.000000 0.000000
vt 3.779528 0.078740 0.000000
vt 0.000000 0.078740 0.000000
vt 0.000000 0.000000 0.000000
vt 1.889764 0.000000 0.000000
vt 1.889764 0.078740 0.000000
vt 0.000000 0.078740 0.000000
vt 0.000000 0.000000 0.000000
vt 3.779528 0.000000 0.000000
vt 3.779528 0.078740 0.000000
vt 0.000000 0.078740 0.000000
vt 0.944882 -1.889764 0.000000
vt 0.944882 1.889764 0.000000
vt -0.944882 1.889764 0.000000
vt -0.944882 -1.889764 0.000000
vt -0.944882 1.889764 0.000000
vt -0.944882 -1.889764 0.000000
vt 0.944882 -1.889764 0.000000
vt 0.944882 1.889764 0.000000
vn 0.000000 -0.100000 0.000000
vn 0.000000 -0.100000 0.000000
vn 0.000000 -0.100000 0.000000
vn 0.000000 -0.100000 0.000000
vn 0.000000 -0.000000 -0.100000
vn 0.000000 -0.000000 -0.100000
vn 0.000000 -0.000000 -0.100000
vn 0.000000 -0.000000 -0.100000
vn -0.000000 0.100000 -0.000000
vn -0.000000 0.100000 -0.000000
vn -0.000000 0.100000 -0.000000
vn -0.000000 0.100000 -0.000000
vn -0.000000 0.000000 0.100000
vn -0.000000 0.000000 0.100000
vn -0.000000 0.000000 0.100000
vn -0.000000 0.000000 0.100000
vn 0.100000 0.000000 0.000000
vn 0.100000 0.000000 0.000000
vn 0.100000 0.000000 0.000000
vn 0.100000 0.000000 0.000000
vn -0.100000 -0.000000 -0.000000
vn -0.100000 -0.000000 -0.000000
vn -0.100000 -0.000000 -0.000000
vn -0.100000 -0.000000 -0.000000
f 19/49/49 20/50/50 23/52/52
f 23/52/52 20/50/50 24/51/51
f 17/53/53 19/54/54 21/56/56
f 21/56/56 19/54/54 23/55/55
f 18/57/57 17/58/58 22/60/60
f 22/60/60 17/58/58 21/59/59
f 20/61/61 18/62/62 24/64/64
f 24/64/64 18/62/62 22/63/63
f 20/66/66 19/67/67 18/65/65
f 18/65/65 19/67/67 17/68/68
f 22/70/70 21/71/71 24/69/69
f 24/69/69 21/71/71 23/72/72

g Solid1:1

v -4466.038530 -129.448840 2979.701066
v -4466.038530 -129.448840 3459.701066
v -4466.038530 -109.448840 2979.701066
v -4466.038530 -109.448840 3459.701066
v -4196.038530 -129.448840 2979.701066
v -4196.038530 -129.448840 3459.701066
v -4196.038530 -109.448840 2979.701066
v -4196.038530 -109.448840 3459.701066
vt 0.000000 0.000000 0.000000
vt 1.889764 0.000000 0.000000
vt 1.889764 0.078740 0.000000
vt 0.000000 0.078740 0.000000
vt 0.000000 0.000000 0.000000
vt 1.062992 0.000000 0.000000
vt 1.062992 0.078740 0.000000
vt 0.000000 0.078740 0.000000
vt 0.000000 0.000000 0.000000
vt 1.889764 0.000000 0.000000
vt 1.889764 0.078740 0.000000
vt 0.000000 0.078740 0.000000
vt 0.000000 0.000000 0.000000
vt 1.062992 0.000000 0.000000
vt 1.062992 0.078740 0.000000
vt 0.000000 0.078740 0.000000
vt -0.944882 0.531496 0.000000
vt -0.944882 -0.531496 0.000000
vt 0.944882 -0.531496 0.000000
vt 0.944882 0.531496 0.000000
vt 0.944882 -0.531496 0.000000
vt 0.944882 0.531496 0.000000
vt -0.944882 0.531496 0.000000
vt -0.944882 -0.531496 0.000000
vn -0.100000 -0.000000 0.000000
vn -0.100000 -0.000000 0.000000
vn -0.100000 -0.000000 0.000000
vn -0.100000 -0.000000 0.000000
vn -0.000000 -0.000000 -0.100000
vn -0.000000 -0.000000 -0.100000
vn -0.000000 -0.000000 -0.100000
vn -0.000000 -0.000000 -0.100000
vn 0.100000 0.000000 -0.000000
vn 0.100000 0.000000 -0.000000
vn 0.100000 0.000000 -0.000000
vn 0.100000 0.000000 -0.000000
vn 0.000000 0.000000 0.100000
vn 0.000000 0.000000 0.100000
vn 0.000000 0.000000 0.100000
vn 0.000000 0.000000 0.100000
vn 0.000000 -0.100000 0.000000
vn 0.000000 -0.100000 0.000000
vn 0.000000 -0.100000 0.000000
vn 0.000000 -0.100000 0.000000
vn -0.000000 0.100000 -0.000000
vn -0.000000 0.100000 -0.000000
vn -0.000000 0.100000 -0.000000
vn -0.000000 0.100000 -0.000000
f 25/73/73 26/74/74 27/76/76
f 27/76/76 26/74/74 28/75/75
f 29/77/77 25/78/78 31/80/80
f 31/80/80 25/78/78 27/79/79
f 30/81/81 29/82/82 32/84/84
f 32/84/84 29/82/82 31/83/83
f 26/85/85 30/86/86 28/88/88
f 28/88/88 30/86/86 32/87/87
f 26/90/90 25/91/91 30/89/89
f 30/89/89 25/91/91 29/92/92
f 32/94/94 31/95/95 28/93/93
f 28/93/93 31/95/95 27/96/96

g Solid1:2

v -4756.038530 -129.448840 2979.701066
v -4756.038530 -129.448840 3459.701066
v -4756.038530 -109.448840 2979.701066
v -4756.038530 -109.448840 3459.701066
v -4486.038530 -129.448840 2979.701066
v -4486.038530 -129.448840 3459.701066
v -4486.038530 -109.448840 2979.701066
v -4486.038530 -109.448840 3459.701066
vt 0.000000 0.000000 0.000000
vt 1.889764 0.000000 0.000000
vt 1.889764 0.078740 0.000000
vt 0.000000 0.078740 0.000000
vt 0.000000 0.000000 0.000000
vt 1.062992 0.000000 0.000000
vt 1.062992 0.078740 0.000000
vt 0.000000 0.078740 0.000000
vt 0.000000 0.000000 0.000000
vt 1.889764 0.000000 0.000000
vt 1.889764 0.078740 0.000000
vt 0.000000 0.078740 0.000000
vt 0.000000 0.000000 0.000000
vt 1.062992 0.000000 0.000000
vt 1.062992 0.078740 0.000000
vt 0.000000 0.078740 0.000000
vt -0.944882 0.531496 0.000000
vt -0.944882 -0.531496 0.000000
vt 0.944882 -0.531496 0.000000
vt 0.944882 0.531496 0.000000
vt 0.944882 -0.531496 0.000000
vt 0.944882 0.531496 0.000000
vt -0.944882 0.531496 0.000000
vt -0.944882 -0.531496 0.000000
vn -0.100000 0.000000 0.000000
vn -0.100000 0.000000 0.000000
vn -0.100000 0.000000 0.000000
vn -0.100000 0.000000 0.000000
vn -0.000000 -0.000000 -0.100000
vn -0.000000 -0.000000 -0.100000
vn -0.000000 -0.000000 -0.100000
vn -0.000000 -0.000000 -0.100000
vn 0.100000 -0.000000 -0.000000
vn 0.100000 -0.000000 -0.000000
vn 0.100000 -0.000000 -0.000000
vn 0.100000 -0.000000 -0.000000
vn 0.000000 0.000000 0.100000
vn 0.000000 0.000000 0.100000
vn 0.000000 0.000000 0.100000
vn 0.000000 0.000000 0.100000
vn -0.000000 -0.100000 0.000000
vn -0.000000 -0.100000 0.000000
vn -0.000000 -0.100000 0.000000
vn -0.000000 -0.100000 0.000000
vn 0.000000 0.100000 -0.000000
vn 0.000000 0.100000 -0.000000
vn 0.000000 0.100000 -0.000000
vn 0.000000 0.100000 -0.000000
f 33/97/97 34/98/98 35/100/100
f 35/100/100 34/98/98 36/99/99
f 37/101/101 33/102/102 39/104/104
f 39/104/104 33/102/102 35/103/103
f 38/105/105 37/106/106 40/108/108
f 40/108/108 37/106/106 39/107/107
f 34/109/109 38/110/110 36/112/112
f 36/112/112 38/110/110 40/111/111
f 34/114/114 33/115/115 38/113/113
f 38/113/113 33/115/115 37/116/116
f 40/118/118 39/119/119 36/117/117
f 36/117/117 39/119/119 35/120/120

g Solid1:3

v -4756.038530 -619.448840 2979.701066
v -4756.038530 -619.448840 3459.701066
v -4756.038530 -599.448840 2979.701066
v -4756.038530 -599.448840 3459.701066
v -4486.038530 -619.448840 2979.701066
v -4486.038530 -619.448840 3459.701066
v -4486.038530 -599.448840 2979.701066
v -4486.038530 -599.448840 3459.701066
vt 0.000000 0.000000 0.000000
vt 1.889764 0.000000 0.000000
vt 1.889764 0.078740 0.000000
vt 0.000000 0.078740 0.000000
vt 0.000000 0.000000 0.000000
vt 1.062992 0.000000 0.000000
vt 1.062992 0.078740 0.000000
vt 0.000000 0.078740 0.000000
vt 0.000000 0.000000 0.000000
vt 1.889764 0.000000 0.000000
vt 1.889764 0.078740 0.000000
vt 0.000000 0.078740 0.000000
vt 0.000000 0.000000 0.000000
vt 1.062992 0.000000 0.000000
vt 1.062992 0.078740 0.000000
vt 0.000000 0.078740 0.000000
vt -0.944882 0.531496 0.000000
vt -0.944882 -0.531496 0.000000
vt 0.944882 -0.531496 0.000000
vt 0.944882 0.531496 0.000000
vt 0.944882 -0.531496 0.000000
vt 0.944882 0.531496 0.000000
vt -0.944882 0.531496 0.000000
vt -0.944882 -0.531496 0.000000
vn -0.100000 0.000000 0.000000
vn -0.100000 0.000000 0.000000
vn -0.100000 0.000000 0.000000
vn -0.100000 0.000000 0.000000
vn -0.000000 -0.000000 -0.100000
vn -0.000000 -0.000000 -0.100000
vn -0.000000 -0.000000 -0.100000
vn -0.000000 -0.000000 -0.100000
vn 0.100000 -0.000000 -0.000000
vn 0.100000 -0.000000 -0.000000
vn 0.100000 -0.000000 -0.000000
vn 0.100000 -0.000000 -0.000000
vn 0.000000 0.000000 0.100000
vn 0.000000 0.000000 0.100000
vn 0.000000 0.000000 0.100000
vn 0.000000 0.000000 0.100000
vn -0.000000 -0.100000 0.000000
vn -0.000000 -0.100000 0.000000
vn -0.000000 -0.100000 0.000000
vn -0.000000 -0.100000 0.000000
vn 0.000000 0.100000 -0.000000
vn 0.000000 0.100000 -0.000000
vn 0.000000 0.100000 -0.000000
vn 0.000000 0.100000 -0.000000
f 41/121/121 42/122/122 43/124/124
f 43/124/124 42/122/122 44/123/123
f 45/125/125 41/126/126 47/128/128
f 47/128/128 41/126/126 43/127/127
f 46/129/129 45/130/130 48/132/132
f 48/132/132 45/130/130 47/131/131
f 42/133/133 46/134/134 44/136/136
f 44/136/136 46/134/134 48/135/135
f 42/138/138 41/139/139 46/137/137
f 46/137/137 41/139/139 45/140/140
f 48/142/142 47/143/143 44/141/141
f 44/141/141 47/143/143 43/144/144

# 48 vertices
# 144 texture params
# 144 normals
# 76 facets

# 5 groups
