# WaveFront *.obj file (generated by Autodesk ATF)

mtllib Mueble_TV.mtl

g Solid1

v -807.630522 -265.210843 -10.000000
v -807.630522 -265.210843 10.000000
v -807.630522 259.789157 -10.000000
v -807.630522 259.789157 10.000000
v 792.369478 -265.210843 -10.000000
v 792.369478 -265.210843 10.000000
v 792.369478 259.789157 -10.000000
v 792.369478 259.789157 10.000000
vt 0.000000 0.000000 0.000000
vt 52.500000 0.000000 0.000000
vt 52.500000 2.000000 0.000000
vt 0.000000 2.000000 0.000000
vt 0.000000 0.000000 0.000000
vt 160.000000 0.000000 0.000000
vt 160.000000 2.000000 0.000000
vt 0.000000 2.000000 0.000000
vt 0.000000 0.000000 0.000000
vt 52.500000 0.000000 0.000000
vt 52.500000 2.000000 0.000000
vt 0.000000 2.000000 0.000000
vt 0.000000 0.000000 0.000000
vt 160.000000 0.000000 0.000000
vt 160.000000 2.000000 0.000000
vt 0.000000 2.000000 0.000000
vt -80.000000 -26.250000 0.000000
vt 80.000000 -26.250000 0.000000
vt 80.000000 26.250000 0.000000
vt -80.000000 26.250000 0.000000
vt -80.000000 -26.250000 0.000000
vt 80.000000 -26.250000 0.000000
vt 80.000000 26.250000 0.000000
vt -80.000000 26.250000 0.000000
vn -0.100000 0.000000 0.000000
vn -0.100000 0.000000 0.000000
vn -0.100000 0.000000 0.000000
vn -0.100000 0.000000 0.000000
vn 0.000000 0.100000 0.000000
vn 0.000000 0.100000 0.000000
vn 0.000000 0.100000 0.000000
vn 0.000000 0.100000 0.000000
vn 0.100000 0.000000 0.000000
vn 0.100000 0.000000 0.000000
vn 0.100000 0.000000 0.000000
vn 0.100000 0.000000 0.000000
vn 0.000000 -0.100000 0.000000
vn 0.000000 -0.100000 0.000000
vn 0.000000 -0.100000 0.000000
vn 0.000000 -0.100000 0.000000
vn 0.000000 0.000000 -0.100000
vn 0.000000 0.000000 -0.100000
vn 0.000000 0.000000 -0.100000
vn 0.000000 0.000000 -0.100000
vn 0.000000 0.000000 0.100000
vn 0.000000 0.000000 0.100000
vn 0.000000 0.000000 0.100000
vn 0.000000 0.000000 0.100000
usemtl 191,191,191
f 3/1/1 1/2/2 4/4/4
f 4/4/4 1/2/2 2/3/3
f 7/5/5 3/6/6 8/8/8
f 8/8/8 3/6/6 4/7/7
f 5/9/9 7/10/10 6/12/12
f 6/12/12 7/10/10 8/11/11
f 1/13/13 5/14/14 2/16/16
f 2/16/16 5/14/14 6/15/15
f 5/17/17 1/18/18 7/20/20
f 7/20/20 1/18/18 3/19/19
f 2/21/21 6/22/22 4/24/24
f 4/24/24 6/22/22 8/23/23

g Solid1:1

v -807.630522 -265.210843 310.000000
v -787.630522 -265.210843 310.000000
v -807.630522 259.789157 310.000000
v -787.630522 259.789157 310.000000
v -807.630522 -265.210843 10.000000
v -787.630522 -265.210843 10.000000
v -807.630522 259.789157 10.000000
v -787.630522 259.789157 10.000000
vt 0.000000 0.000000 0.000000
vt 52.500000 0.000000 0.000000
vt 52.500000 2.000000 0.000000
vt 0.000000 2.000000 0.000000
vt 0.000000 0.000000 0.000000
vt 30.000000 0.000000 0.000000
vt 30.000000 2.000000 0.000000
vt 0.000000 2.000000 0.000000
vt 0.000000 0.000000 0.000000
vt 52.500000 0.000000 0.000000
vt 52.500000 2.000000 0.000000
vt 0.000000 2.000000 0.000000
vt 0.000000 0.000000 0.000000
vt 30.000000 0.000000 0.000000
vt 30.000000 2.000000 0.000000
vt 0.000000 2.000000 0.000000
vt -15.000000 -26.250000 0.000000
vt 15.000000 -26.250000 0.000000
vt 15.000000 26.250000 0.000000
vt -15.000000 26.250000 0.000000
vt -15.000000 -26.250000 0.000000
vt 15.000000 -26.250000 0.000000
vt 15.000000 26.250000 0.000000
vt -15.000000 26.250000 0.000000
vn -0.000000 -0.000000 0.100000
vn -0.000000 -0.000000 0.100000
vn -0.000000 -0.000000 0.100000
vn -0.000000 -0.000000 0.100000
vn 0.000000 0.100000 0.000000
vn 0.000000 0.100000 0.000000
vn 0.000000 0.100000 0.000000
vn 0.000000 0.100000 0.000000
vn 0.000000 0.000000 -0.100000
vn 0.000000 0.000000 -0.100000
vn 0.000000 0.000000 -0.100000
vn 0.000000 0.000000 -0.100000
vn -0.000000 -0.100000 -0.000000
vn -0.000000 -0.100000 -0.000000
vn -0.000000 -0.100000 -0.000000
vn -0.000000 -0.100000 -0.000000
vn 0.100000 -0.000000 0.000000
vn 0.100000 -0.000000 0.000000
vn 0.100000 -0.000000 0.000000
vn 0.100000 -0.000000 0.000000
vn -0.100000 0.000000 -0.000000
vn -0.100000 0.000000 -0.000000
vn -0.100000 0.000000 -0.000000
vn -0.100000 0.000000 -0.000000
f 11/25/25 9/26/26 12/28/28
f 12/28/28 9/26/26 10/27/27
f 15/29/29 11/30/30 16/32/32
f 16/32/32 11/30/30 12/31/31
f 13/33/33 15/34/34 14/36/36
f 14/36/36 15/34/34 16/35/35
f 9/37/37 13/38/38 10/40/40
f 10/40/40 13/38/38 14/39/39
f 10/41/41 14/42/42 12/44/44
f 12/44/44 14/42/42 16/43/43
f 13/45/45 9/46/46 15/48/48
f 15/48/48 9/46/46 11/47/47

g Solid1:2

v -414.297189 -265.210843 310.000000
v -394.297189 -265.210843 310.000000
v -414.297189 259.789157 310.000000
v -394.297189 259.789157 310.000000
v -414.297189 -265.210843 10.000000
v -394.297189 -265.210843 10.000000
v -414.297189 259.789157 10.000000
v -394.297189 259.789157 10.000000
vt 0.000000 0.000000 0.000000
vt 52.500000 0.000000 0.000000
vt 52.500000 2.000000 0.000000
vt 0.000000 2.000000 0.000000
vt 0.000000 0.000000 0.000000
vt 30.000000 0.000000 0.000000
vt 30.000000 2.000000 0.000000
vt 0.000000 2.000000 0.000000
vt 0.000000 0.000000 0.000000
vt 52.500000 0.000000 0.000000
vt 52.500000 2.000000 0.000000
vt 0.000000 2.000000 0.000000
vt 0.000000 0.000000 0.000000
vt 30.000000 0.000000 0.000000
vt 30.000000 2.000000 0.000000
vt 0.000000 2.000000 0.000000
vt -15.000000 -26.250000 0.000000
vt 15.000000 -26.250000 0.000000
vt 15.000000 26.250000 0.000000
vt -15.000000 26.250000 0.000000
vt -15.000000 -26.250000 0.000000
vt 15.000000 -26.250000 0.000000
vt 15.000000 26.250000 0.000000
vt -15.000000 26.250000 0.000000
vn -0.000000 -0.000000 0.100000
vn -0.000000 -0.000000 0.100000
vn -0.000000 -0.000000 0.100000
vn -0.000000 -0.000000 0.100000
vn 0.000000 0.100000 0.000000
vn 0.000000 0.100000 0.000000
vn 0.000000 0.100000 0.000000
vn 0.000000 0.100000 0.000000
vn 0.000000 0.000000 -0.100000
vn 0.000000 0.000000 -0.100000
vn 0.000000 0.000000 -0.100000
vn 0.000000 0.000000 -0.100000
vn -0.000000 -0.100000 -0.000000
vn -0.000000 -0.100000 -0.000000
vn -0.000000 -0.100000 -0.000000
vn -0.000000 -0.100000 -0.000000
vn 0.100000 -0.000000 0.000000
vn 0.100000 -0.000000 0.000000
vn 0.100000 -0.000000 0.000000
vn 0.100000 -0.000000 0.000000
vn -0.100000 0.000000 -0.000000
vn -0.100000 0.000000 -0.000000
vn -0.100000 0.000000 -0.000000
vn -0.100000 0.000000 -0.000000
f 19/49/49 17/50/50 20/52/52
f 20/52/52 17/50/50 18/51/51
f 23/53/53 19/54/54 24/56/56
f 24/56/56 19/54/54 20/55/55
f 21/57/57 23/58/58 22/60/60
f 22/60/60 23/58/58 24/59/59
f 17/61/61 21/62/62 18/64/64
f 18/64/64 21/62/62 22/63/63
f 18/65/65 22/66/66 20/68/68
f 20/68/68 22/66/66 24/67/67
f 21/69/69 17/70/70 23/72/72
f 23/72/72 17/70/70 19/71/71

g Solid1:3

v -20.963855 -265.210843 310.000000
v -0.963855 -265.210843 310.000000
v -20.963855 259.789157 310.000000
v -0.963855 259.789157 310.000000
v -20.963855 -265.210843 10.000000
v -0.963855 -265.210843 10.000000
v -20.963855 259.789157 10.000000
v -0.963855 259.789157 10.000000
vt 0.000000 0.000000 0.000000
vt 52.500000 0.000000 0.000000
vt 52.500000 2.000000 0.000000
vt 0.000000 2.000000 0.000000
vt 0.000000 0.000000 0.000000
vt 30.000000 0.000000 0.000000
vt 30.000000 2.000000 0.000000
vt 0.000000 2.000000 0.000000
vt 0.000000 0.000000 0.000000
vt 52.500000 0.000000 0.000000
vt 52.500000 2.000000 0.000000
vt 0.000000 2.000000 0.000000
vt 0.000000 0.000000 0.000000
vt 30.000000 0.000000 0.000000
vt 30.000000 2.000000 0.000000
vt 0.000000 2.000000 0.000000
vt -15.000000 -26.250000 0.000000
vt 15.000000 -26.250000 0.000000
vt 15.000000 26.250000 0.000000
vt -15.000000 26.250000 0.000000
vt -15.000000 -26.250000 0.000000
vt 15.000000 -26.250000 0.000000
vt 15.000000 26.250000 0.000000
vt -15.000000 26.250000 0.000000
vn -0.000000 -0.000000 0.100000
vn -0.000000 -0.000000 0.100000
vn -0.000000 -0.000000 0.100000
vn -0.000000 -0.000000 0.100000
vn 0.000000 0.100000 0.000000
vn 0.000000 0.100000 0.000000
vn 0.000000 0.100000 0.000000
vn 0.000000 0.100000 0.000000
vn 0.000000 0.000000 -0.100000
vn 0.000000 0.000000 -0.100000
vn 0.000000 0.000000 -0.100000
vn 0.000000 0.000000 -0.100000
vn -0.000000 -0.100000 -0.000000
vn -0.000000 -0.100000 -0.000000
vn -0.000000 -0.100000 -0.000000
vn -0.000000 -0.100000 -0.000000
vn 0.100000 -0.000000 0.000000
vn 0.100000 -0.000000 0.000000
vn 0.100000 -0.000000 0.000000
vn 0.100000 -0.000000 0.000000
vn -0.100000 0.000000 -0.000000
vn -0.100000 0.000000 -0.000000
vn -0.100000 0.000000 -0.000000
vn -0.100000 0.000000 -0.000000
f 27/73/73 25/74/74 28/76/76
f 28/76/76 25/74/74 26/75/75
f 31/77/77 27/78/78 32/80/80
f 32/80/80 27/78/78 28/79/79
f 29/81/81 31/82/82 30/84/84
f 30/84/84 31/82/82 32/83/83
f 25/85/85 29/86/86 26/88/88
f 26/88/88 29/86/86 30/87/87
f 26/89/89 30/90/90 28/92/92
f 28/92/92 30/90/90 32/91/91
f 29/93/93 25/94/94 31/96/96
f 31/96/96 25/94/94 27/95/95

g Solid1:4

v 372.369478 -265.210843 310.000000
v 392.369478 -265.210843 310.000000
v 372.369478 259.789157 310.000000
v 392.369478 259.789157 310.000000
v 372.369478 -265.210843 10.000000
v 392.369478 -265.210843 10.000000
v 372.369478 259.789157 10.000000
v 392.369478 259.789157 10.000000
vt 0.000000 0.000000 0.000000
vt 52.500000 0.000000 0.000000
vt 52.500000 2.000000 0.000000
vt 0.000000 2.000000 0.000000
vt 0.000000 0.000000 0.000000
vt 30.000000 0.000000 0.000000
vt 30.000000 2.000000 0.000000
vt 0.000000 2.000000 0.000000
vt 0.000000 0.000000 0.000000
vt 52.500000 0.000000 0.000000
vt 52.500000 2.000000 0.000000
vt 0.000000 2.000000 0.000000
vt 0.000000 0.000000 0.000000
vt 30.000000 0.000000 0.000000
vt 30.000000 2.000000 0.000000
vt 0.000000 2.000000 0.000000
vt -15.000000 -26.250000 0.000000
vt 15.000000 -26.250000 0.000000
vt 15.000000 26.250000 0.000000
vt -15.000000 26.250000 0.000000
vt -15.000000 -26.250000 0.000000
vt 15.000000 -26.250000 0.000000
vt 15.000000 26.250000 0.000000
vt -15.000000 26.250000 0.000000
vn -0.000000 -0.000000 0.100000
vn -0.000000 -0.000000 0.100000
vn -0.000000 -0.000000 0.100000
vn -0.000000 -0.000000 0.100000
vn 0.000000 0.100000 0.000000
vn 0.000000 0.100000 0.000000
vn 0.000000 0.100000 0.000000
vn 0.000000 0.100000 0.000000
vn 0.000000 0.000000 -0.100000
vn 0.000000 0.000000 -0.100000
vn 0.000000 0.000000 -0.100000
vn 0.000000 0.000000 -0.100000
vn -0.000000 -0.100000 -0.000000
vn -0.000000 -0.100000 -0.000000
vn -0.000000 -0.100000 -0.000000
vn -0.000000 -0.100000 -0.000000
vn 0.100000 -0.000000 0.000000
vn 0.100000 -0.000000 0.000000
vn 0.100000 -0.000000 0.000000
vn 0.100000 -0.000000 0.000000
vn -0.100000 0.000000 -0.000000
vn -0.100000 0.000000 -0.000000
vn -0.100000 0.000000 -0.000000
vn -0.100000 0.000000 -0.000000
f 35/97/97 33/98/98 36/100/100
f 36/100/100 33/98/98 34/99/99
f 39/101/101 35/102/102 40/104/104
f 40/104/104 35/102/102 36/103/103
f 37/105/105 39/106/106 38/108/108
f 38/108/108 39/106/106 40/107/107
f 33/109/109 37/110/110 34/112/112
f 34/112/112 37/110/110 38/111/111
f 34/113/113 38/114/114 36/116/116
f 36/116/116 38/114/114 40/115/115
f 37/117/117 33/118/118 39/120/120
f 39/120/120 33/118/118 35/119/119

# 40 vertices
# 120 texture params
# 120 normals
# 60 facets

# 5 groups
